<svg xmlns="http://www.w3.org/2000/svg" xmlns:xlink="http://www.w3.org/1999/xlink" width="41.251" height="41.251" viewBox="0 0 41.251 41.251">
  <defs>
    <style>
      .cls-1, .cls-3 {
        fill: #3C3C3C;
      }

      .cls-1 {
        stroke: #707070;
      }

      .cls-2 {
        clip-path: url(#clip-path);
      }
    </style>
    <clipPath id="clip-path">
      <rect id="Rectangle_8" data-name="Rectangle 8" class="cls-1" width="41.251" height="41.251" transform="translate(497 928)"/>
    </clipPath>
  </defs>
  <g id="Github" class="cls-2" transform="translate(-497 -928)">
    <g id="Github-2" data-name="Github" transform="translate(497 928.484)">
      <path id="Github-3" data-name="Github" class="cls-3" d="M15.507,39.565V35.409s-5.181,1.117-6.756-1.941c-1.282-3.863-3-3.277-3.277-4.339.311-1.172,3.5.22,4.174,1.813,1.007,1.721,3.021,2.874,5.859,1.666A5.431,5.431,0,0,1,16.88,29.77C6.353,29.2,5.712,18,9.593,14.043a7.788,7.788,0,0,1,.22-5.493c2.087-.293,5.676,2.215,5.676,2.215s5.859-1.556,10.308,0c0,0,3.881-2.673,5.639-2.124a6.863,6.863,0,0,1,.183,5.474c3.277,2.343,4.266,14.94-7.2,15.654a4.549,4.549,0,0,1,1.318,3.643v6.133a1.3,1.3,0,0,0,1.666.622C49.177,31.784,43.867,1.428,21.274,0c-27.353,1.025-26.8,34.4-7.049,40.279C15.617,40.352,15.507,39.565,15.507,39.565Z" transform="translate(0 0)"/>
    </g>
  </g>
</svg>
