<svg xmlns="http://www.w3.org/2000/svg" width="35.339" height="34.51" viewBox="0 0 35.339 34.51">
  <defs>
    <style>
      .cls-1 {
        fill: #414042;
      }
    </style>
  </defs>
  <path id="Github" class="cls-1" d="M13.285,33.894v-3.56s-4.439.957-5.788-1.663c-1.1-3.309-2.572-2.808-2.808-3.717.267-1,3,.188,3.576,1.553a3.694,3.694,0,0,0,5.019,1.427A4.653,4.653,0,0,1,14.461,25.5C5.442,25.017,4.893,15.418,8.218,12.03a6.672,6.672,0,0,1,.188-4.705c1.788-.251,4.862,1.9,4.862,1.9s5.019-1.333,8.83,0c0,0,3.325-2.29,4.831-1.819a5.879,5.879,0,0,1,.157,4.69c2.808,2.008,3.654,12.8-6.164,13.41a3.9,3.9,0,0,1,1.129,3.121v5.254a1.113,1.113,0,0,0,1.427.533C42.128,27.228,37.58,1.223,18.225,0-5.207.878-4.737,29.471,12.187,34.506,13.379,34.569,13.285,33.894,13.285,33.894Z" transform="translate(0 0)"/>
</svg>
