<svg xmlns="http://www.w3.org/2000/svg" width="30.751" height="30.751" viewBox="0 0 30.751 30.751">
  <defs>
    <style>
      .cls-1 {
        fill: #414042;
      }
    </style>
  </defs>
  <path id="Path_2" data-name="Path 2" class="cls-1" d="M28.351,0H2.4A2.407,2.407,0,0,0,0,2.4V28.351a2.407,2.407,0,0,0,2.4,2.4H28.351a2.407,2.407,0,0,0,2.4-2.4V2.4A2.407,2.407,0,0,0,28.351,0ZM9.142,26.177H4.554V11.48H9.135ZM6.844,9.546A2.654,2.654,0,1,1,9.5,6.892,2.654,2.654,0,0,1,6.844,9.546ZM26.2,26.177H21.651l-.021-8.072s.144-2.956-2.318-2.99c-2.8-.041-2.764,2.99-2.764,2.99l-.021,8.072H11.974V11.48h4.362v2.03h.089c1.3-3.12,9.766-4.417,9.766,3.683Z" transform="translate(0 0)"/>
</svg>
